<svg width="14" height="18" viewBox="0 0 14 18" fill="none" xmlns="http://www.w3.org/2000/svg">
<path d="M6.13594 17.5955C4.23281 15.3326 0 9.84814 0 6.76751C0 3.02987 3.13396 0 7 0C10.8646 0 14 3.02987 14 6.76751C14 9.84814 9.73438 15.3326 7.86406 17.5955C7.41562 18.1348 6.58437 18.1348 6.13594 17.5955ZM7 9.02335C8.28698 9.02335 9.33333 8.01175 9.33333 6.76751C9.33333 5.52328 8.28698 4.51168 7 4.51168C5.71302 4.51168 4.66667 5.52328 4.66667 6.76751C4.66667 8.01175 5.71302 9.02335 7 9.02335Z" fill="black"/>
</svg>
